<svg xmlns="http://www.w3.org/2000/svg" xmlns:xlink="http://www.w3.org/1999/xlink" data-name="Layer 1" viewBox="0 0 32 32" id="minimize"><defs><linearGradient id="b" x1="16.219" x2="15.793" y1=".846" y2="30.293" gradientUnits="userSpaceOnUse"><stop offset="0" stop-color="#eaf6ff"></stop><stop offset=".997" stop-color="#b2deff"></stop></linearGradient><linearGradient id="a" x1="8.14" x2="24.991" y1="24.962" y2="6.707" gradientUnits="userSpaceOnUse"><stop offset="0" stop-color="#06b9ff"></stop><stop offset="1" stop-color="#4868ff"></stop></linearGradient><linearGradient id="c" x1="7.694" x2="24.545" y1="24.551" y2="6.295" xlink:href="#a"></linearGradient></defs><circle cx="16" cy="16" r="16" fill="url(#b)"></circle><path fill="url(#a)" d="M24.85,11.044l.83-.829A2.754,2.754,0,1,0,21.785,6.32l-.829.829a2.63,2.63,0,0,0-5.216.428l-.113,5.972A2.776,2.776,0,0,0,18.4,16.373h.052l5.972-.113a2.63,2.63,0,0,0,.427-5.216Z"></path><path fill="url(#c)" d="M13.549,15.627l-5.972.112a2.655,2.655,0,0,0-2.57,2.824A2.618,2.618,0,0,0,7.15,20.956l-.83.829a2.754,2.754,0,1,0,3.895,3.895l.829-.83a2.618,2.618,0,0,0,2.393,2.143,2.656,2.656,0,0,0,2.824-2.57l.112-5.973a2.777,2.777,0,0,0-2.824-2.823Z"></path></svg>